<?xml version="1.0" encoding="UTF-8"?>
<svg id="_레이어_2" data-name="레이어 2" xmlns="http://www.w3.org/2000/svg" viewBox="0 0 385.16 385.16">
  <defs>
    <style>
      .cls-1 {
        fill: #323333;
      }
    </style>
  </defs>
  <g id="_레이어_1-2" data-name="레이어 1">
    <g>
      <path class="cls-1" d="M275.54,385.16H109.62c-60.45,0-109.62-49.17-109.62-109.62V109.62C0,49.18,49.18,0,109.62,0h165.91c60.45,0,109.62,49.18,109.62,109.62v165.92c0,60.45-49.18,109.62-109.62,109.62ZM109.62,33.02c-42.24,0-76.61,34.37-76.61,76.61v165.92c0,42.24,34.37,76.61,76.61,76.61h165.91c42.24,0,76.61-34.37,76.61-76.61V109.62c0-42.24-34.37-76.61-76.61-76.61H109.62Z"/>
      <path class="cls-1" d="M192.58,291.2c-54.38,0-98.62-44.24-98.62-98.62s44.24-98.62,98.62-98.62,98.62,44.24,98.62,98.62-44.24,98.62-98.62,98.62ZM192.58,126.98c-36.17,0-65.61,29.43-65.61,65.6s29.43,65.61,65.61,65.61,65.61-29.43,65.61-65.61-29.43-65.6-65.61-65.6Z"/>
      <path class="cls-1" d="M319.14,88.32c0,13.09-10.61,23.7-23.7,23.7s-23.7-10.61-23.7-23.7,10.61-23.7,23.7-23.7,23.7,10.61,23.7,23.7Z"/>
    </g>
  </g>
</svg>