<?xml version="1.0" encoding="UTF-8"?>
<svg id="_레이어_2" data-name="레이어 2" xmlns="http://www.w3.org/2000/svg" viewBox="0 0 100 100">
  <defs>
    <style>
      .cls-1 {
        fill: #fff;
      }
    </style>
  </defs>
  <g id="objects">
    <g>
      <path class="cls-1" d="M71.54,100H28.46c-15.69,0-28.46-12.77-28.46-28.46V28.46C0,12.77,12.77,0,28.46,0h43.08c15.69,0,28.46,12.77,28.46,28.46v43.08c0,15.69-12.77,28.46-28.46,28.46ZM28.46,8.57c-10.97,0-19.89,8.92-19.89,19.89v43.08c0,10.97,8.92,19.89,19.89,19.89h43.08c10.97,0,19.89-8.92,19.89-19.89V28.46c0-10.97-8.92-19.89-19.89-19.89H28.46Z"/>
      <path class="cls-1" d="M50,75.6c-14.12,0-25.6-11.49-25.6-25.6s11.49-25.6,25.6-25.6,25.6,11.49,25.6,25.6-11.49,25.6-25.6,25.6ZM50,32.97c-9.39,0-17.03,7.64-17.03,17.03s7.64,17.03,17.03,17.03,17.03-7.64,17.03-17.03-7.64-17.03-17.03-17.03Z"/>
      <path class="cls-1" d="M82.86,22.93c0,3.4-2.76,6.15-6.15,6.15s-6.15-2.75-6.15-6.15,2.75-6.15,6.15-6.15,6.15,2.75,6.15,6.15Z"/>
    </g>
  </g>
</svg>